<svg width="576.3" height="69.5" viewBox="0 0 576.3 69.5" xmlns="http://www.w3.org/2000/svg"><g id="svgGroup" stroke-linecap="round" fill-rule="evenodd" font-size="9pt" stroke="#000" stroke-width="0.25mm" fill="#000" style="stroke:#000;stroke-width:0.25mm;fill:#000"><path d="M 331.5 68.2 L 315.7 0 L 324.2 0 L 337.4 60.2 L 337.5 60.2 L 355 0 L 365.6 0 L 382.9 60.2 L 383 60.2 L 396.1 0 L 404.6 0 L 388.9 68.2 L 378.3 68.2 L 360.3 8.1 L 360.2 8.1 L 342.1 68.2 L 331.5 68.2 Z M 192 68.2 L 192 27.9 A 12.017 12.017 0 0 0 192.011 27.575 Q 192.057 25.3 191.5 18.8 L 198.9 17.8 L 200 24.2 A 60.686 60.686 0 0 1 204.472 21.481 A 53.411 53.411 0 0 1 205.95 20.7 Q 208.9 19.2 212 18.05 A 18.848 18.848 0 0 1 215.424 17.12 A 15.491 15.491 0 0 1 218 16.9 A 29.313 29.313 0 0 1 220.885 17.034 Q 223.131 17.256 224.85 17.85 Q 227.6 18.8 229.3 21 A 11.265 11.265 0 0 1 230.685 23.37 Q 231.185 24.508 231.534 25.868 A 20.876 20.876 0 0 1 231.75 26.8 A 31.206 31.206 0 0 1 232.207 29.753 Q 232.381 31.34 232.452 33.174 A 68.308 68.308 0 0 1 232.5 35.8 L 232.5 68.2 L 224.5 68.2 L 224.5 36.7 Q 224.5 33.899 224.413 31.665 A 89.109 89.109 0 0 0 224.4 31.35 Q 224.3 29 223.55 27.35 Q 222.8 25.7 221.25 24.8 Q 220.154 24.164 218.433 23.977 A 14.271 14.271 0 0 0 216.9 23.9 A 13.31 13.31 0 0 0 213.793 24.284 A 17.685 17.685 0 0 0 211.4 25.05 Q 208.5 26.2 205.7 27.7 A 57.297 57.297 0 0 0 201.623 30.115 A 66.946 66.946 0 0 0 200 31.2 L 200 68.2 L 192 68.2 Z M 0 68.2 L 23.4 0 L 33.8 0 L 57.2 68.2 L 48.5 68.2 L 42.5 50 L 14.8 50 L 8.7 68.2 L 0 68.2 Z M 574 19 L 572.6 26.1 A 61.342 61.342 0 0 0 569.225 25.154 Q 567.029 24.61 565.15 24.35 Q 561.9 23.9 559.2 23.9 A 11.899 11.899 0 0 0 556.499 24.191 A 8.657 8.657 0 0 0 553.35 25.6 Q 551 27.3 551 30 Q 551.1 32.4 553.1 34.1 A 22.447 22.447 0 0 0 556.081 36.226 A 27.219 27.219 0 0 0 557.75 37.15 Q 560.4 38.5 563.65 40.1 Q 566.9 41.7 569.75 43.7 Q 572.6 45.7 574.4 48.5 Q 576.2 51.3 576.3 55.2 Q 576.213 58.84 574.887 61.391 A 10.028 10.028 0 0 1 574.45 62.15 Q 572.7 64.9 569.95 66.55 Q 567.2 68.2 564 68.85 A 33.467 33.467 0 0 1 560.527 69.376 A 26.56 26.56 0 0 1 558 69.5 Q 554.4 69.5 550.55 69.1 A 41.182 41.182 0 0 1 546.045 68.365 A 53.204 53.204 0 0 1 542.3 67.4 L 543.8 60.2 A 88.482 88.482 0 0 0 547.972 61.21 Q 549.96 61.638 551.761 61.914 A 53.872 53.872 0 0 0 552 61.95 A 65.245 65.245 0 0 0 554.39 62.263 Q 555.458 62.382 556.385 62.441 A 27.049 27.049 0 0 0 558.1 62.5 Q 559.9 62.5 561.65 62.1 A 13.495 13.495 0 0 0 563.695 61.466 A 11.259 11.259 0 0 0 564.8 60.95 A 6.672 6.672 0 0 0 566.449 59.723 A 6.067 6.067 0 0 0 567.05 59 Q 567.9 57.8 567.9 56.3 Q 567.8 53.5 566 51.55 A 15.531 15.531 0 0 0 563.791 49.591 A 21.112 21.112 0 0 0 561.35 48.05 Q 558.5 46.5 555.25 44.95 Q 552 43.4 549.15 41.35 Q 546.3 39.3 544.4 36.45 A 11.008 11.008 0 0 1 542.796 32.504 A 15.49 15.49 0 0 1 542.5 29.4 A 9.89 9.89 0 0 1 543.132 25.833 A 9.219 9.219 0 0 1 544.05 24.05 Q 545.6 21.7 548.05 20.15 Q 550.5 18.6 553.45 17.75 A 21.574 21.574 0 0 1 557.569 16.971 A 18.941 18.941 0 0 1 559.2 16.9 A 44.505 44.505 0 0 1 562.224 17.009 Q 563.872 17.121 565.7 17.35 A 51.8 51.8 0 0 1 568.555 17.793 Q 570.122 18.079 571.857 18.479 A 94.417 94.417 0 0 1 574 19 Z M 170.7 69 L 169.7 63.5 A 86.116 86.116 0 0 1 165.231 65.903 Q 163.024 67.003 160.982 67.837 A 53.52 53.52 0 0 1 160.95 67.85 A 22.664 22.664 0 0 1 153.22 69.48 A 26.19 26.19 0 0 1 152.2 69.5 A 22.374 22.374 0 0 1 147.829 69.098 Q 144.111 68.357 141.55 66.25 Q 138.357 63.623 137.745 58.218 A 24.194 24.194 0 0 1 137.6 55.5 A 12.826 12.826 0 0 1 138.132 51.744 A 10.952 10.952 0 0 1 139.6 48.7 A 16.479 16.479 0 0 1 144.154 44.288 A 19.23 19.23 0 0 1 144.85 43.85 Q 148.1 41.9 152.2 40.8 Q 156.3 39.7 160.6 39.4 Q 162.4 39.2 165.3 39.05 Q 168.2 38.9 169.8 38.8 A 104.919 104.919 0 0 0 169.756 35.684 Q 169.712 34.22 169.626 32.919 A 61.491 61.491 0 0 0 169.6 32.55 Q 169.4 29.8 168.4 27.85 Q 167.4 25.9 165.45 24.9 A 7.518 7.518 0 0 0 163.914 24.331 Q 162.367 23.927 160.197 23.902 A 25.187 25.187 0 0 0 159.9 23.9 Q 157 23.9 154.3 24.25 A 100.047 100.047 0 0 0 151.901 24.589 Q 150.776 24.763 149.782 24.947 A 58.184 58.184 0 0 0 149.5 25 A 64.957 64.957 0 0 0 146.814 25.594 A 51.47 51.47 0 0 0 144.9 26.1 L 143.3 19.2 A 79.06 79.06 0 0 1 146.581 18.489 A 96.703 96.703 0 0 1 148.7 18.1 A 51.632 51.632 0 0 1 151.041 17.691 Q 152.644 17.447 154.5 17.25 A 62.528 62.528 0 0 1 158.82 16.949 A 76.587 76.587 0 0 1 161.6 16.9 A 28.398 28.398 0 0 1 164.876 17.077 Q 167.783 17.416 169.85 18.4 Q 173 19.9 174.75 22.45 A 15.324 15.324 0 0 1 177.018 27.647 A 17.719 17.719 0 0 1 177.15 28.25 A 34.06 34.06 0 0 1 177.777 33.762 A 38.815 38.815 0 0 1 177.8 35.1 L 177.8 59.1 Q 177.8 60.5 177.85 62.05 Q 177.9 63.6 178.05 65.1 A 124.898 124.898 0 0 0 178.351 67.802 A 138.048 138.048 0 0 0 178.4 68.2 L 170.7 69 Z M 441.4 69 L 440.4 63.5 A 86.116 86.116 0 0 1 435.931 65.903 Q 433.724 67.003 431.682 67.837 A 53.52 53.52 0 0 1 431.65 67.85 A 22.664 22.664 0 0 1 423.92 69.48 A 26.19 26.19 0 0 1 422.9 69.5 A 22.374 22.374 0 0 1 418.529 69.098 Q 414.811 68.357 412.25 66.25 Q 409.057 63.623 408.445 58.218 A 24.194 24.194 0 0 1 408.3 55.5 A 12.826 12.826 0 0 1 408.832 51.744 A 10.952 10.952 0 0 1 410.3 48.7 A 16.479 16.479 0 0 1 414.854 44.288 A 19.23 19.23 0 0 1 415.55 43.85 Q 418.8 41.9 422.9 40.8 Q 427 39.7 431.3 39.4 Q 433.1 39.2 436 39.05 Q 438.9 38.9 440.5 38.8 A 104.919 104.919 0 0 0 440.456 35.684 Q 440.412 34.22 440.326 32.919 A 61.491 61.491 0 0 0 440.3 32.55 Q 440.1 29.8 439.1 27.85 Q 438.1 25.9 436.15 24.9 A 7.518 7.518 0 0 0 434.614 24.331 Q 433.067 23.927 430.897 23.902 A 25.187 25.187 0 0 0 430.6 23.9 Q 427.7 23.9 425 24.25 A 100.047 100.047 0 0 0 422.601 24.589 Q 421.476 24.763 420.482 24.947 A 58.184 58.184 0 0 0 420.2 25 A 64.957 64.957 0 0 0 417.514 25.594 A 51.47 51.47 0 0 0 415.6 26.1 L 414 19.2 A 79.06 79.06 0 0 1 417.281 18.489 A 96.703 96.703 0 0 1 419.4 18.1 A 51.632 51.632 0 0 1 421.741 17.691 Q 423.344 17.447 425.2 17.25 A 62.528 62.528 0 0 1 429.52 16.949 A 76.587 76.587 0 0 1 432.3 16.9 A 28.398 28.398 0 0 1 435.576 17.077 Q 438.483 17.416 440.55 18.4 Q 443.7 19.9 445.45 22.45 A 15.324 15.324 0 0 1 447.718 27.647 A 17.719 17.719 0 0 1 447.85 28.25 A 34.06 34.06 0 0 1 448.477 33.762 A 38.815 38.815 0 0 1 448.5 35.1 L 448.5 59.1 Q 448.5 60.5 448.55 62.05 Q 448.6 63.6 448.75 65.1 A 124.898 124.898 0 0 0 449.051 67.802 A 138.048 138.048 0 0 0 449.1 68.2 L 441.4 69 Z M 282.3 60.3 L 283.8 67 Q 281.5 67.7 279.05 68.2 Q 276.6 68.7 273.65 69.1 A 45.058 45.058 0 0 1 268.395 69.492 A 50.368 50.368 0 0 1 267.5 69.5 A 31.515 31.515 0 0 1 261.239 68.897 A 27.288 27.288 0 0 1 258.2 68.1 Q 253.9 66.7 250.7 63.6 A 19.463 19.463 0 0 1 247.246 59.036 A 25.645 25.645 0 0 1 245.65 55.55 Q 243.8 50.6 243.8 43.4 A 39.835 39.835 0 0 1 244.192 37.669 A 28.859 28.859 0 0 1 245.6 31.95 A 26.307 26.307 0 0 1 247.972 27.014 A 21.444 21.444 0 0 1 250.55 23.65 Q 253.7 20.3 257.95 18.6 A 24.035 24.035 0 0 1 265.351 16.96 A 28.239 28.239 0 0 1 267.2 16.9 A 21.296 21.296 0 0 1 271.374 17.29 A 15.873 15.873 0 0 1 275.7 18.8 Q 279.3 20.7 281.65 23.95 A 21.654 21.654 0 0 1 284.408 29.19 A 26.241 26.241 0 0 1 285.15 31.55 A 35.317 35.317 0 0 1 286.29 39.804 A 39.552 39.552 0 0 1 286.3 40.7 L 284.8 45.1 L 252.5 45.1 Q 252.5 48.2 253.3 51.3 Q 254.1 54.4 256.05 56.9 A 13.9 13.9 0 0 0 259.829 60.226 A 16.816 16.816 0 0 0 261.15 60.95 Q 263.882 62.294 267.779 62.473 A 26.692 26.692 0 0 0 269 62.5 Q 272 62.5 274.5 62.15 A 58.345 58.345 0 0 0 276.284 61.873 Q 277.694 61.631 278.85 61.35 A 31.635 31.635 0 0 0 281.276 60.66 A 26.901 26.901 0 0 0 282.3 60.3 Z M 530.5 60.3 L 532 67 Q 529.7 67.7 527.25 68.2 Q 524.8 68.7 521.85 69.1 A 45.058 45.058 0 0 1 516.595 69.492 A 50.368 50.368 0 0 1 515.7 69.5 A 31.515 31.515 0 0 1 509.439 68.897 A 27.288 27.288 0 0 1 506.4 68.1 Q 502.1 66.7 498.9 63.6 A 19.463 19.463 0 0 1 495.446 59.036 A 25.645 25.645 0 0 1 493.85 55.55 Q 492 50.6 492 43.4 A 39.835 39.835 0 0 1 492.392 37.669 A 28.859 28.859 0 0 1 493.8 31.95 A 26.307 26.307 0 0 1 496.172 27.014 A 21.444 21.444 0 0 1 498.75 23.65 Q 501.9 20.3 506.15 18.6 A 24.035 24.035 0 0 1 513.551 16.96 A 28.239 28.239 0 0 1 515.4 16.9 A 21.296 21.296 0 0 1 519.574 17.29 A 15.873 15.873 0 0 1 523.9 18.8 Q 527.5 20.7 529.85 23.95 A 21.654 21.654 0 0 1 532.608 29.19 A 26.241 26.241 0 0 1 533.35 31.55 A 35.317 35.317 0 0 1 534.49 39.804 A 39.552 39.552 0 0 1 534.5 40.7 L 533 45.1 L 500.7 45.1 Q 500.7 48.2 501.5 51.3 Q 502.3 54.4 504.25 56.9 A 13.9 13.9 0 0 0 508.029 60.226 A 16.816 16.816 0 0 0 509.35 60.95 Q 512.082 62.294 515.979 62.473 A 26.692 26.692 0 0 0 517.2 62.5 Q 520.2 62.5 522.7 62.15 A 58.345 58.345 0 0 0 524.484 61.873 Q 525.894 61.631 527.05 61.35 A 31.635 31.635 0 0 0 529.476 60.66 A 26.901 26.901 0 0 0 530.5 60.3 Z M 131.3 18.5 L 129.7 25.2 A 33.812 33.812 0 0 0 128.511 24.945 Q 127.063 24.659 125 24.35 Q 122 23.9 118.9 23.9 Q 114.4 23.9 111.55 25.7 Q 108.7 27.5 107.1 30.35 A 19.423 19.423 0 0 0 105.023 36.002 A 22.168 22.168 0 0 0 104.9 36.65 A 39.571 39.571 0 0 0 104.302 42.987 A 36.459 36.459 0 0 0 104.3 43.4 A 33.627 33.627 0 0 0 104.515 47.304 Q 104.75 49.313 105.243 51.034 A 18.533 18.533 0 0 0 105.6 52.15 A 20.24 20.24 0 0 0 106.953 55.181 A 14.663 14.663 0 0 0 109.05 58.1 A 12.983 12.983 0 0 0 113.653 61.314 A 12.725 12.725 0 0 0 114 61.45 Q 116.8 62.5 119.9 62.5 Q 122 62.5 123.95 62.25 A 49.696 49.696 0 0 0 126.049 61.937 A 39.469 39.469 0 0 0 127.55 61.65 A 29.31 29.31 0 0 0 130.323 60.923 A 26.654 26.654 0 0 0 130.7 60.8 L 132.3 67.5 Q 130.2 68.1 128.4 68.5 A 34.164 34.164 0 0 1 126.959 68.786 Q 125.681 69.013 124.15 69.2 A 40.306 40.306 0 0 1 120.951 69.458 A 48.707 48.707 0 0 1 118.9 69.5 A 36.972 36.972 0 0 1 113.853 69.172 A 27.439 27.439 0 0 1 109.1 68.1 A 17.42 17.42 0 0 1 103.104 64.789 A 16.751 16.751 0 0 1 101.85 63.6 A 17.721 17.721 0 0 1 98.974 59.511 A 24.361 24.361 0 0 1 97.35 55.5 Q 96.08 51.403 95.851 45.83 A 61.534 61.534 0 0 1 95.8 43.3 A 42.163 42.163 0 0 1 96.147 37.741 Q 96.623 34.17 97.75 31.25 A 26.862 26.862 0 0 1 99.853 26.933 A 20.085 20.085 0 0 1 102.9 23.05 Q 106.1 19.9 110.25 18.4 Q 114.4 16.9 118.9 16.9 A 42.328 42.328 0 0 1 123.268 17.12 A 38.876 38.876 0 0 1 123.55 17.15 A 78.964 78.964 0 0 1 125.413 17.378 Q 126.261 17.493 127.011 17.617 A 43.89 43.89 0 0 1 127.5 17.7 Q 129.5 18.1 131.3 18.5 Z M 66.4 68.2 L 66.4 26 Q 66.4 23.786 65.937 19.162 A 201.652 201.652 0 0 0 65.9 18.8 L 73.3 17.8 L 74.1 25.1 L 74.2 25.1 Q 76 22.8 77.7 21.1 A 24.654 24.654 0 0 1 80.562 18.635 A 22.19 22.19 0 0 1 81.25 18.15 Q 82.771 17.122 84.19 16.94 A 4.768 4.768 0 0 1 84.8 16.9 A 15.388 15.388 0 0 1 85.314 16.887 Q 87.539 16.864 91.2 17.4 L 89.4 25.1 Q 86.277 24.532 84.945 24.591 A 4.491 4.491 0 0 0 84.8 24.6 A 4.199 4.199 0 0 0 83.218 24.929 Q 82.622 25.17 82.003 25.589 A 9.67 9.67 0 0 0 81.2 26.2 A 23.326 23.326 0 0 0 78.631 28.713 A 20.623 20.623 0 0 0 77.9 29.6 A 40.292 40.292 0 0 0 75.716 32.544 A 49.861 49.861 0 0 0 74.4 34.6 L 74.4 68.2 L 66.4 68.2 Z M 462.7 68.2 L 462.7 26 Q 462.7 23.786 462.237 19.162 A 201.652 201.652 0 0 0 462.2 18.8 L 469.6 17.8 L 470.4 25.1 L 470.5 25.1 Q 472.3 22.8 474 21.1 A 24.654 24.654 0 0 1 476.862 18.635 A 22.19 22.19 0 0 1 477.55 18.15 Q 479.071 17.122 480.49 16.94 A 4.768 4.768 0 0 1 481.1 16.9 A 15.388 15.388 0 0 1 481.614 16.887 Q 483.839 16.864 487.5 17.4 L 485.7 25.1 Q 482.577 24.532 481.245 24.591 A 4.491 4.491 0 0 0 481.1 24.6 A 4.199 4.199 0 0 0 479.518 24.929 Q 478.922 25.17 478.303 25.589 A 9.67 9.67 0 0 0 477.5 26.2 A 23.326 23.326 0 0 0 474.931 28.713 A 20.623 20.623 0 0 0 474.2 29.6 A 40.292 40.292 0 0 0 472.016 32.544 A 49.861 49.861 0 0 0 470.7 34.6 L 470.7 68.2 L 462.7 68.2 Z M 17.4 42 L 39.8 42 L 28.8 8 L 28.5 8 L 17.4 42 Z M 169.8 56.5 L 169.8 45.1 Q 167.8 45.2 166 45.3 Q 164.2 45.4 162.45 45.55 Q 160.728 45.698 159.345 45.894 A 40.889 40.889 0 0 0 159.3 45.9 A 45.095 45.095 0 0 0 155.771 46.473 Q 152.35 47.181 150.257 48.315 A 9.355 9.355 0 0 0 149.1 49.05 Q 146.1 51.3 146.1 55.5 Q 146.1 59 148.25 60.75 Q 150.332 62.444 153.679 62.498 A 13.746 13.746 0 0 0 153.9 62.5 Q 158.7 62.5 162.45 60.85 Q 166.2 59.2 169.8 56.5 Z M 440.5 56.5 L 440.5 45.1 Q 438.5 45.2 436.7 45.3 Q 434.9 45.4 433.15 45.55 Q 431.428 45.698 430.045 45.894 A 40.889 40.889 0 0 0 430 45.9 A 45.095 45.095 0 0 0 426.471 46.473 Q 423.05 47.181 420.957 48.315 A 9.355 9.355 0 0 0 419.8 49.05 Q 416.8 51.3 416.8 55.5 Q 416.8 59 418.95 60.75 Q 421.032 62.444 424.379 62.498 A 13.746 13.746 0 0 0 424.6 62.5 Q 429.4 62.5 433.15 60.85 Q 436.9 59.2 440.5 56.5 Z M 252.8 38.7 L 278 38.7 A 6.564 6.564 0 0 0 277.986 38.312 Q 277.934 37.475 277.7 35.6 A 17.239 17.239 0 0 0 277.037 32.601 A 21.868 21.868 0 0 0 276.3 30.6 Q 275.2 28 272.9 25.95 A 7.848 7.848 0 0 0 269.338 24.165 A 11.506 11.506 0 0 0 266.8 23.9 A 16.563 16.563 0 0 0 263.861 24.146 Q 262.174 24.451 260.809 25.131 A 9.326 9.326 0 0 0 259.9 25.65 A 15.73 15.73 0 0 0 257.082 27.957 A 13.419 13.419 0 0 0 255.6 29.8 A 16.356 16.356 0 0 0 254.021 32.762 A 13.826 13.826 0 0 0 253.4 34.7 A 30.6 30.6 0 0 0 253.084 36.165 Q 252.8 37.669 252.8 38.7 Z M 501 38.7 L 526.2 38.7 A 6.564 6.564 0 0 0 526.186 38.312 Q 526.134 37.475 525.9 35.6 A 17.239 17.239 0 0 0 525.237 32.601 A 21.868 21.868 0 0 0 524.5 30.6 Q 523.4 28 521.1 25.95 A 7.848 7.848 0 0 0 517.538 24.165 A 11.506 11.506 0 0 0 515 23.9 A 16.563 16.563 0 0 0 512.061 24.146 Q 510.374 24.451 509.009 25.131 A 9.326 9.326 0 0 0 508.1 25.65 A 15.73 15.73 0 0 0 505.282 27.957 A 13.419 13.419 0 0 0 503.8 29.8 A 16.356 16.356 0 0 0 502.221 32.762 A 13.826 13.826 0 0 0 501.6 34.7 A 30.6 30.6 0 0 0 501.284 36.165 Q 501 37.669 501 38.7 Z" vector-effect="non-scaling-stroke"/></g></svg>